<?xml version="1.0" encoding="UTF-8" standalone="no"?>
<!DOCTYPE svg PUBLIC "-//W3C//DTD SVG 1.1//EN" "http://www.w3.org/Graphics/SVG/1.1/DTD/svg11.dtd">
<svg width="100%" height="100%" viewBox="0 0 24 24" version="1.1" xmlns="http://www.w3.org/2000/svg" xmlns:xlink="http://www.w3.org/1999/xlink" xml:space="preserve" xmlns:serif="http://www.serif.com/" style="fill-rule:evenodd;clip-rule:evenodd;stroke-linejoin:round;stroke-miterlimit:2;">
    <g transform="matrix(1,0,0,1,0,8.04313)">
        <path d="M3,11L3,19L21,19L21,11L3,11ZM3,9L21,9L21,7L11.995,7C11.276,6.996 10.809,6.66 10.306,6.037C10.236,5.951 10.016,5.664 9.982,5.621C9.607,5.149 9.384,5 9,5L3,5L3,9ZM21,5C22.105,5 23,5.895 23,7L23,19C23,20.105 22.105,21 21,21L3,21C1.895,21 1,20.105 1,19L1,5C1,3.895 1.895,3 3,3L9,3C10.12,3 10.833,3.475 11.549,4.379C11.597,4.439 11.81,4.716 11.862,4.781C12.02,4.976 12.052,5 12.002,5L21,5Z" style="fill:white;"/>
    </g>
</svg>
